<svg width="88" height="96" viewBox="0 0 88 96" fill="none" xmlns="http://www.w3.org/2000/svg">
<path d="M38.375 95.3437C37.2812 95.3437 36.3438 95.1875 35.25 94.7187C32.2812 93.3125 30.7188 90.1875 31.3438 86.9062L36.0312 62.0625H7.4375C4.78125 62.0625 2.28125 60.5 1.03125 58.1562C-0.218745 55.8125 0.0937549 52.8437 1.65625 50.6562L36.8125 3.62498C38.6875 1.12498 41.8125 0.187476 44.7812 1.12498C47.75 2.06248 49.625 4.71873 49.625 7.84373V29.875H80.5625C83.375 29.875 85.875 31.4375 86.9688 33.9375C88.2188 36.4375 87.75 39.4062 86.0312 41.4375L43.8438 92.6875C42.4375 94.4062 40.4062 95.3437 38.375 95.3437ZM42.4375 7.84373L7.28125 54.875L40.25 55.0312C41.3438 55.0312 42.2812 55.5 42.9062 56.2812C43.5312 57.0625 43.8438 58.1562 43.6875 59.25L38.2188 88.3125L38.375 88.4687L80.7188 37.0625L46.1875 36.9062C44.3125 36.9062 42.5938 35.3437 42.5938 33.3125L42.4375 7.84373Z" fill="#242424"/>
</svg>
