<svg width="96" height="88" viewBox="0 0 96 88" fill="none" xmlns="http://www.w3.org/2000/svg">
<path d="M94.7188 64C93 58.6875 87.375 55.7188 82.0625 57.125L63.1562 61.6562C62.6875 57.125 59.0938 53.375 54.0938 52.5938H34.0938C32.5312 50.25 30.0312 48.6875 26.9062 48.6875H10.5C5.1875 48.6875 0.65625 53.0625 0.65625 58.5312V77.9063C0.65625 83.2188 5.03125 87.75 10.5 87.75H26.9062C29.25 87.75 31.5937 86.8125 33.1562 85.0938C33.4688 84.7812 33.625 84.4688 33.9375 84.1562C38.4688 86.3438 43.3125 87.5938 48.1562 87.5938C51.125 87.5938 54.0938 87.125 56.9062 86.3437L80.8125 79.1562L87.5312 77.125C90.1875 76.3438 92.5312 74.625 93.9375 72.125C95.3438 69.7812 95.6562 66.8125 94.7188 64ZM28.1562 79.7813C27.8437 80.0938 27.375 80.25 26.9062 80.25H10.5C8.9375 80.25 7.6875 79 7.6875 77.4375V58.2187C7.6875 56.6562 8.9375 55.4062 10.5 55.4062H27.2188C28 55.4062 28.625 56.0313 28.625 56.8125V78.6875C28.625 79.3125 28.3125 79.625 28.1562 79.7813ZM87.8438 68.8438C87.375 69.625 86.75 70.25 85.8125 70.4063L78.9375 72.4375L55.1875 79.1562C49.0937 80.875 42.6875 80.25 37.0625 77.4375L35.6562 76.6563V59.4688H53.625C55.3437 59.7813 56.4375 61.0312 56.4375 62.4375V63.2187L51.125 64.4687C49.25 64.9375 48 66.8125 48.4687 68.6875C48.9375 70.5625 50.8125 71.8125 52.6875 71.3438L83.9375 63.8438C85.6562 63.375 87.5312 64.3125 88.1562 66.0312C88.3125 66.9687 88.3125 68.0625 87.8438 68.8438Z" fill="#242424"/>
<path d="M71.9062 27.5937H79.875C82.2188 27.5937 84.25 29.625 84.25 31.9687C84.25 34.3125 82.2188 36.3438 79.875 36.3438H67.8437C65.9687 36.3438 64.25 37.9062 64.25 39.9375C64.25 41.9688 65.8125 43.5312 67.8437 43.5312H72.2187V44C72.2187 45.875 73.7812 47.5937 75.8125 47.5937C77.8437 47.5937 79.4062 46.0312 79.4062 44V43.5312H79.875C86.125 43.5312 91.2812 38.375 91.2812 32.125C91.2812 25.875 86.125 20.7188 79.875 20.7188H71.9062C69.5625 20.7188 67.5312 18.6875 67.5312 16.3438C67.5312 14 69.5625 11.9688 71.9062 11.9688H83.7812C85.6562 11.9688 87.375 10.4062 87.375 8.375C87.375 6.34375 85.8125 4.78125 83.7812 4.78125H79.4062V4.15625C79.4062 2.28125 77.8437 0.5625 75.8125 0.5625C73.7812 0.5625 72.2187 2.125 72.2187 4.15625V4.625H71.75C65.5 4.625 60.3438 9.78125 60.3438 16.0313C60.5 22.4375 65.6562 27.5937 71.9062 27.5937Z" fill="#242424"/>
</svg>
