<svg width="92" height="92" viewBox="0 0 92 92" fill="none" xmlns="http://www.w3.org/2000/svg">
<path d="M26.833 55.1669C28.6681 53.7906 31.2692 54.157 32.6532 55.9829L32.6726 56.0076C32.6974 56.0389 32.7445 56.0976 32.8135 56.1797C32.9516 56.3443 33.1754 56.601 33.4806 56.9194C34.0943 57.5598 35.0166 58.4287 36.2108 59.2972C38.6152 61.0459 41.9394 62.6669 45.9997 62.6669C50.0599 62.6669 53.3841 61.0459 55.7885 59.2972C56.9827 58.4287 57.905 57.5598 58.5187 56.9194C58.8239 56.601 59.0477 56.3443 59.1859 56.1797C59.2548 56.0976 59.3019 56.0389 59.3267 56.0076L59.3461 55.9829C60.7302 54.157 63.3312 53.7906 65.1663 55.1669C67.0073 56.5476 67.3804 59.1593 65.9997 61.0003L65.9955 61.0059C65.5493 61.5978 65.0475 62.1508 64.5353 62.6853C63.6516 63.6074 62.3604 64.8218 60.69 66.0367C57.3652 68.4547 52.356 71.0003 45.9997 71.0003C39.6433 71.0003 34.6341 68.4547 31.3094 66.0367C29.639 64.8218 28.3477 63.6074 27.464 62.6853C26.9534 62.1525 26.4547 61.6011 26.0087 61.0122C24.6397 59.1933 25.0091 56.5349 26.833 55.1669Z" fill="#242424"/>
<path d="M39.75 33.5C39.75 36.9518 36.9518 39.75 33.5 39.75C30.0482 39.75 27.25 36.9518 27.25 33.5C27.25 30.0482 30.0482 27.25 33.5 27.25C36.9518 27.25 39.75 30.0482 39.75 33.5Z" fill="#242424"/>
<path d="M58.5 39.75C61.9518 39.75 64.75 36.9518 64.75 33.5C64.75 30.0482 61.9518 27.25 58.5 27.25C55.0482 27.25 52.25 30.0482 52.25 33.5C52.25 36.9518 55.0482 39.75 58.5 39.75Z" fill="#242424"/>
<path fill-rule="evenodd" clip-rule="evenodd" d="M46 0.166687C20.6869 0.166687 0.166656 20.687 0.166656 46C0.166656 71.3131 20.6869 91.8334 46 91.8334C71.313 91.8334 91.8333 71.3131 91.8333 46C91.8333 20.687 71.313 0.166687 46 0.166687ZM8.49999 46C8.49999 25.2893 25.2893 8.50002 46 8.50002C66.7107 8.50002 83.5 25.2893 83.5 46C83.5 66.7107 66.7107 83.5 46 83.5C25.2893 83.5 8.49999 66.7107 8.49999 46Z" fill="#242424"/>
</svg>
